<svg width="648" height="786" viewBox="0 0 648 786" fill="none" xmlns="http://www.w3.org/2000/svg">
<path d="M642.313 774.281C645.75 775.656 647.468 777.374 647.468 779.436C647.468 783.56 645.406 784.935 641.282 783.56C603.479 776.687 571.861 750.568 546.43 705.204C524.435 666.713 513.438 626.161 513.438 583.546L515.5 190.735C515.5 175.614 510.689 164.273 501.066 156.712L606.228 90.728L609.321 95.883C588.701 111.692 578.391 123.033 578.391 129.906L575.298 640.251C573.923 703.486 596.262 748.162 642.313 774.281ZM238.161 28.868L146.402 103.1L140.216 94.852L146.402 89.697C130.593 73.8883 111.692 65.984 89.697 65.984C80.0743 65.984 70.4517 68.046 60.829 72.17C51.8937 75.6066 43.6457 80.418 36.085 86.604C29.2117 92.79 23.3693 100.007 18.558 108.255C14.434 116.503 12.372 125.095 12.372 134.03C12.372 172.521 31.961 191.766 71.139 191.766C96.5703 191.766 113.754 185.236 122.689 172.177L127.844 176.301C112.035 194.859 92.1027 204.138 68.046 204.138C48.1133 204.138 31.6173 197.608 18.558 184.549C6.186 170.802 0 153.963 0 134.03C0 102.413 13.0593 74.232 39.178 49.488C65.984 24.744 95.1957 12.372 126.813 12.372C152.932 12.372 180.081 21.3073 208.262 39.178L231.975 21.651L238.161 28.868ZM615.507 14.434C618.256 19.2453 619.631 24.744 619.631 30.93C619.631 48.1133 610.008 63.922 590.763 78.356C570.83 92.1027 552.272 98.976 535.089 98.976C507.596 98.976 485.601 90.3843 469.105 73.201L411.369 121.658L410.338 569.112L450.547 606.228L481.477 586.639L487.663 593.856L420.648 654.685V733.041H414.462V666.026L336.106 593.856L264.967 659.84V732.01H257.75V667.057C229.569 644.375 198.296 633.034 163.929 633.034C139.872 633.034 119.252 640.251 102.069 654.685C84.8857 668.432 76.294 686.646 76.294 709.328C76.294 747.819 96.914 767.064 138.154 767.064C165.647 767.064 187.642 753.317 204.138 725.824C204.825 725.137 205.856 724.793 207.231 724.793C208.606 724.793 209.637 725.137 210.324 725.824C212.386 727.199 212.386 729.261 210.324 732.01C188.329 760.878 164.616 775.312 139.185 775.312C87.635 775.312 61.86 748.85 61.86 695.925C61.86 673.243 72.8573 650.217 94.852 626.848C114.785 606.915 136.779 592.481 160.836 583.546V572.205C170.459 572.205 182.487 562.582 196.921 543.337L200.014 140.216C200.014 127.844 191.766 116.847 175.27 107.224C188.329 102.413 211.699 83.511 245.378 50.519C272.871 23.0257 298.99 9.27899 323.734 9.27899C340.917 9.27899 359.475 15.1213 379.408 26.806C397.966 41.9274 408.62 67.3587 411.369 103.1C426.49 100.351 464.294 65.984 524.779 -1.34706e-05C532.34 34.3667 547.461 51.55 570.143 51.55C588.014 51.55 603.135 39.178 615.507 14.434ZM262.905 89.697V506.221L183.518 569.112V577.36C239.192 577.36 275.621 589.045 292.804 612.414L349.509 562.926L350.54 108.255C350.54 51.2063 337.481 22.682 311.362 22.682C279.057 22.682 262.905 45.0203 262.905 89.697Z" fill="#D000FF" style="fill:#D000FF;fill:color(display-p3 0.8167 0.0000 1.0000);fill-opacity:1;"/>
</svg>
