<svg width="731" height="886" viewBox="0 0 731 886" fill="none" xmlns="http://www.w3.org/2000/svg">
<path d="M75.263 791.808C75.263 766.377 82.8237 744.726 97.945 726.855C113.066 708.984 129.906 693.519 148.464 680.46C167.022 666.713 183.862 654.685 198.983 644.375C214.104 633.378 221.665 622.38 221.665 611.383V150.526C221.665 146.402 219.947 143.309 216.51 141.247C213.761 138.498 210.668 136.436 207.231 135.061C203.794 132.999 200.358 131.281 196.921 129.906C194.172 128.531 192.797 126.469 192.797 123.72C192.797 122.345 195.546 119.596 201.045 115.472C206.544 110.661 212.73 106.193 219.603 102.069C227.164 97.2577 234.037 92.79 240.223 88.666C247.096 83.8547 251.564 80.7617 253.626 79.387C262.561 71.139 270.809 62.891 278.37 54.643C286.618 46.395 294.866 39.178 303.114 32.992C311.362 26.1187 320.297 20.62 329.92 16.496C340.23 12.372 351.571 10.31 363.943 10.31C381.814 10.31 396.248 13.0593 407.245 18.558C418.242 23.3693 426.834 29.5553 433.02 37.116C439.893 43.9893 444.705 51.8937 447.454 60.829C450.891 69.7643 453.64 78.0123 455.702 85.573C457.764 92.4463 459.482 98.6323 460.857 104.131C462.232 108.942 464.981 111.348 469.105 111.348H472.198L501.066 89.697L586.639 -1.71661e-05H587.67C589.732 -1.71661e-05 591.45 3.09298 592.825 9.27899C594.887 14.7777 597.636 20.9637 601.073 27.837C604.51 34.023 608.977 40.209 614.476 46.395C619.975 51.8937 627.192 54.643 636.127 54.643C649.874 54.643 661.215 50.519 670.15 42.271C679.085 33.3357 685.615 23.0257 689.739 11.341H693.863C693.863 11.341 694.207 13.7467 694.894 18.558C696.269 22.682 696.956 26.1186 696.956 28.868V34.023C696.956 45.0203 693.519 54.9867 686.646 63.922C679.773 72.8573 671.181 80.7617 660.871 87.635C651.248 93.821 640.595 98.976 628.91 103.1C617.225 106.537 606.572 108.255 596.949 108.255C588.014 108.255 580.109 107.224 573.236 105.162C567.05 102.413 561.208 99.6633 555.709 96.914C550.898 94.1647 546.086 91.759 541.275 89.697C537.151 86.9477 533.027 85.573 528.903 85.573C526.841 85.573 522.717 87.2913 516.531 90.728C510.345 94.1646 507.252 97.2576 507.252 100.007V504.159C508.627 516.531 509.658 530.278 510.345 545.399C511.032 559.833 511.376 574.611 511.376 589.732C512.063 604.166 512.063 618.256 511.376 632.003C511.376 645.75 511.376 658.122 511.376 669.119C512.751 673.93 515.156 677.367 518.593 679.429C526.841 667.744 537.495 661.902 550.554 661.902V669.119C548.492 670.494 545.399 673.587 541.275 678.398C537.151 682.522 532.34 686.99 526.841 691.801C522.03 696.612 517.562 701.424 513.438 706.235C509.314 710.359 506.221 713.452 504.159 715.514C498.66 721.7 493.162 728.23 487.663 735.103C482.852 741.976 480.102 749.881 479.415 758.816C479.415 760.878 479.071 764.315 478.384 769.126C478.384 773.937 478.04 779.436 477.353 785.622C477.353 791.121 477.353 796.619 477.353 802.118C477.353 806.929 477.353 810.366 477.353 812.428H475.291C474.604 811.741 473.573 811.053 472.198 810.366C470.823 809.679 470.136 808.991 470.136 808.304V758.816C470.136 756.754 466.012 751.599 457.764 743.351C449.516 735.103 440.237 726.168 429.927 716.545C419.617 706.922 409.651 698.331 400.028 690.77C390.405 683.209 384.219 679.429 381.47 679.429H379.408C378.033 680.116 375.971 680.804 373.222 681.491C371.16 682.178 369.442 682.866 368.067 683.553C366.005 685.615 362.225 689.052 356.726 693.863C351.915 698.674 346.76 704.173 341.261 710.359C335.762 715.858 330.264 721.356 324.765 726.855C319.954 731.666 316.517 735.103 314.455 737.165C313.08 739.227 310.675 741.976 307.238 745.413C303.801 748.85 302.083 750.912 302.083 751.599V830.986C300.708 830.986 298.646 830.642 295.897 829.955C293.148 829.268 291.773 828.237 291.773 826.862V758.816C291.773 758.129 290.398 757.098 287.649 755.723C285.587 753.661 283.869 752.286 282.494 751.599C266.685 741.289 251.908 733.728 238.161 728.917C225.102 724.106 209.637 721.7 191.766 721.7C189.017 721.7 183.518 722.044 175.27 722.731C167.709 722.731 162.898 722.731 160.836 722.731C152.588 724.793 143.996 728.23 135.061 733.041C126.126 737.852 117.878 743.695 110.317 750.568C103.444 756.754 97.6013 763.971 92.79 772.219C87.9787 780.467 85.573 789.402 85.573 799.025C85.573 820.332 92.4463 837.516 106.193 850.575C119.94 863.634 137.123 870.164 157.743 870.164C167.366 870.164 175.957 867.758 183.518 862.947C191.766 858.136 199.327 852.981 206.2 847.482C213.073 841.983 218.916 836.828 223.727 832.017C228.538 827.206 232.662 824.8 236.099 824.8V837.172C236.099 837.859 232.319 841.64 224.758 848.513C217.197 856.074 211.355 861.916 207.231 866.04C200.358 871.539 192.453 875.663 183.518 878.412C174.583 881.849 165.647 883.567 156.712 883.567C127.844 883.567 106.88 874.975 93.821 857.792C81.449 841.296 75.263 819.301 75.263 791.808ZM568.081 177.332C568.081 173.208 569.456 170.115 572.205 168.053C572.892 168.053 573.923 167.709 575.298 167.022C577.36 165.647 578.735 164.96 579.422 164.96C581.484 163.585 584.577 161.867 588.701 159.805C593.512 157.056 597.98 154.306 602.104 151.557C606.915 148.808 611.039 146.402 614.476 144.34C618.6 142.278 621.006 140.903 621.693 140.216C623.068 139.529 625.473 138.154 628.91 136.092C632.347 133.343 635.783 130.937 639.22 128.875C642.657 126.813 645.75 124.751 648.499 122.689C651.248 120.627 653.31 119.252 654.685 118.565C660.184 114.441 665.339 109.63 670.15 104.131C674.961 98.6323 681.147 95.883 688.708 95.883C688.708 102.069 686.646 107.224 682.522 111.348C678.398 115.472 673.93 119.252 669.119 122.689C664.995 125.438 660.871 128.875 656.747 132.999C652.623 136.436 650.561 141.247 650.561 147.433V690.77C650.561 714.827 650.905 735.79 651.592 753.661C652.967 771.532 657.434 791.121 664.995 812.428C667.744 820.676 672.899 827.893 680.46 834.079C688.021 840.952 695.238 847.138 702.111 852.637C709.672 858.823 716.201 864.322 721.7 869.133C727.886 874.632 730.979 880.13 730.979 885.629C714.483 885.629 701.767 882.536 692.832 876.35C684.584 870.851 674.274 862.603 661.902 851.606C633.034 826.862 612.07 797.65 599.011 763.971C585.952 730.292 579.422 694.894 579.422 657.778V207.231C579.422 201.045 577.36 196.234 573.236 192.797C569.799 188.673 568.081 183.518 568.081 177.332ZM211.355 651.592C223.04 652.279 233.006 652.967 241.254 653.654C249.502 653.654 258.437 655.029 268.06 657.778C274.933 659.84 283.181 663.62 292.804 669.119C303.114 673.93 311.706 676.336 318.579 676.336C319.954 676.336 321.328 676.336 322.703 676.336C324.765 675.649 325.796 674.274 325.796 672.212V82.48L321.672 46.395C321.672 46.395 321.328 46.0513 320.641 45.364C319.954 43.9893 319.266 43.302 318.579 43.302H316.517C311.706 43.302 307.582 45.364 304.145 49.488C301.396 53.612 298.99 58.767 296.928 64.953C295.553 70.4517 294.522 75.9503 293.835 81.449C293.148 86.9477 292.804 91.0717 292.804 93.821V576.329C292.804 576.329 291.773 577.36 289.711 579.422C288.336 580.797 286.962 582.171 285.587 583.546C284.212 584.921 280.088 588.357 273.215 593.856C267.029 598.667 259.812 604.166 251.564 610.352C244.003 615.851 236.786 621.349 229.913 626.848C223.727 632.347 219.947 635.783 218.572 637.158C213.073 641.282 210.324 645.406 210.324 649.53C210.324 649.53 210.324 649.874 210.324 650.561C211.011 650.561 211.355 650.905 211.355 651.592ZM354.664 27.837C351.915 27.837 348.478 28.5243 344.354 29.899C340.917 30.5863 339.199 32.6483 339.199 36.085V661.902C339.199 663.277 339.886 666.026 341.261 670.15C342.636 674.274 345.041 676.336 348.478 676.336C352.602 676.336 357.757 673.587 363.943 668.088C370.129 662.589 373.909 659.153 375.284 657.778C378.033 655.716 381.814 652.623 386.625 648.499C391.436 643.688 393.842 640.938 393.842 640.251V153.619C393.842 152.244 393.498 148.808 392.811 143.309C392.811 137.123 392.467 130.937 391.78 124.751C391.78 117.878 391.436 111.348 390.749 105.162C390.062 98.2887 389.718 93.1337 389.718 89.697C389.718 85.573 388.687 80.0744 386.625 73.201C385.25 65.6403 383.188 58.767 380.439 52.581C377.69 45.7077 374.253 39.8653 370.129 35.054C366.005 30.2427 360.85 27.837 354.664 27.837ZM464.981 140.216V622.724C464.981 626.161 465.325 630.972 466.012 637.158C466.699 642.657 468.074 648.155 470.136 653.654C472.198 658.465 474.947 662.933 478.384 667.057C482.508 670.494 487.663 672.212 493.849 672.212C495.911 672.212 496.942 671.181 496.942 669.119C499.004 649.186 500.035 632.347 500.035 618.6C500.722 604.166 501.066 587.326 501.066 568.081C501.066 556.396 500.722 545.743 500.035 536.12C500.035 525.81 498.317 515.156 494.88 504.159V118.565H486.632L464.981 140.216ZM6.48759e-06 154.65C6.48759e-06 136.779 3.78034 119.596 11.341 103.1C18.9017 85.9166 28.868 70.7953 41.24 57.736C54.2993 44.6766 69.077 34.3667 85.573 26.806C102.069 18.558 119.252 14.434 137.123 14.434C154.306 14.434 169.771 16.8397 183.518 21.651C197.952 26.4623 213.073 32.3046 228.882 39.178C228.882 39.8653 229.569 40.209 230.944 40.209C237.13 40.209 242.629 38.147 247.44 34.023C252.251 29.2117 258.094 26.806 264.967 26.806V36.085C264.967 36.085 261.874 38.4907 255.688 43.302C250.189 48.1133 243.316 53.9557 235.068 60.829C227.507 67.015 219.259 73.5447 210.324 80.418C202.076 87.2913 195.203 92.79 189.704 96.914C186.267 99.6633 181.112 103.444 174.239 108.255C168.053 112.379 164.96 114.441 164.96 114.441H159.805C159.805 107.568 157.743 101.725 153.619 96.914C149.495 92.1027 144.34 88.3223 138.154 85.573C131.968 82.8236 125.438 81.1053 118.565 80.418C111.692 79.0433 105.162 78.356 98.976 78.356C76.9813 78.356 57.3923 85.573 40.209 100.007C23.0257 114.441 14.434 133.686 14.434 157.743C14.434 170.802 16.8397 182.487 21.651 192.797C27.1497 203.107 36.7723 210.324 50.519 214.448C51.8937 215.135 55.674 215.479 61.86 215.479C68.7333 215.479 73.201 215.479 75.263 215.479C80.7617 215.479 87.2913 215.479 94.852 215.479C102.413 215.479 108.942 214.104 114.441 211.355C115.816 210.668 119.252 208.262 124.751 204.138C130.937 200.014 134.717 197.608 136.092 196.921L141.247 195.89C141.247 203.451 138.498 209.637 132.999 214.448C128.188 219.259 122.002 223.04 114.441 225.789C107.568 228.538 100.007 230.6 91.759 231.975C84.1983 232.662 77.325 233.006 71.139 233.006C48.457 233.006 30.93 225.445 18.558 210.324C6.18601 195.203 6.48759e-06 176.645 6.48759e-06 154.65Z" fill="#D000FF" style="fill:#D000FF;fill:color(display-p3 0.8167 0.0000 1.0000);fill-opacity:1;"/>
</svg>
